<mxfile host="app.diagrams.net" modified="2020-09-02T17:10:17.924Z" agent="5.0 (Windows NT 10.0; Win64; x64) AppleWebKit/537.36 (KHTML, like Gecko) Chrome/85.0.4183.83 Safari/537.36" etag="6oDok0O_FvkCOCQp_Cjm" version="13.6.6" type="github">
  <diagram id="0N9GcTCLs40PsIx27nu9" name="Page-1">
    <mxGraphModel dx="868" dy="482" grid="1" gridSize="10" guides="1" tooltips="1" connect="1" arrows="1" fold="1" page="1" pageScale="1" pageWidth="850" pageHeight="1100" math="0" shadow="0">
      <root>
        <mxCell id="0" />
        <mxCell id="1" parent="0" />
        <mxCell id="ZrmOziMJZViyUHCKc2ST-1" value="Level 1&lt;br&gt;Blood Bank and Donor Management System" style="text;html=1;strokeColor=none;fillColor=none;align=center;verticalAlign=middle;whiteSpace=wrap;rounded=0;" parent="1" vertex="1">
          <mxGeometry x="10" y="50" width="310" height="20" as="geometry" />
        </mxCell>
        <mxCell id="ZrmOziMJZViyUHCKc2ST-2" value="Blood&lt;br&gt;Bank&amp;nbsp;&lt;br&gt;Management&lt;br&gt;System" style="ellipse;whiteSpace=wrap;html=1;aspect=fixed;" parent="1" vertex="1">
          <mxGeometry x="360" y="190" width="120" height="120" as="geometry" />
        </mxCell>
        <mxCell id="56nRF85Pk3SCUOcTt5Zv-1" value="" style="rounded=0;whiteSpace=wrap;html=1;" parent="1" vertex="1">
          <mxGeometry x="560" y="110" width="160" height="40" as="geometry" />
        </mxCell>
        <mxCell id="56nRF85Pk3SCUOcTt5Zv-2" value="" style="rounded=0;whiteSpace=wrap;html=1;" parent="1" vertex="1">
          <mxGeometry x="560" y="160" width="160" height="40" as="geometry" />
        </mxCell>
        <mxCell id="56nRF85Pk3SCUOcTt5Zv-3" value="" style="rounded=0;whiteSpace=wrap;html=1;" parent="1" vertex="1">
          <mxGeometry x="560" y="210" width="160" height="40" as="geometry" />
        </mxCell>
        <mxCell id="56nRF85Pk3SCUOcTt5Zv-4" value="" style="rounded=0;whiteSpace=wrap;html=1;" parent="1" vertex="1">
          <mxGeometry x="560" y="260" width="160" height="40" as="geometry" />
        </mxCell>
        <mxCell id="56nRF85Pk3SCUOcTt5Zv-5" value="" style="rounded=0;whiteSpace=wrap;html=1;" parent="1" vertex="1">
          <mxGeometry x="560" y="360" width="160" height="40" as="geometry" />
        </mxCell>
        <mxCell id="56nRF85Pk3SCUOcTt5Zv-6" value="" style="rounded=0;whiteSpace=wrap;html=1;" parent="1" vertex="1">
          <mxGeometry x="560" y="310" width="160" height="40" as="geometry" />
        </mxCell>
        <mxCell id="56nRF85Pk3SCUOcTt5Zv-7" value="" style="rounded=0;whiteSpace=wrap;html=1;" parent="1" vertex="1">
          <mxGeometry x="120" y="360" width="160" height="40" as="geometry" />
        </mxCell>
        <mxCell id="56nRF85Pk3SCUOcTt5Zv-8" value="" style="rounded=0;whiteSpace=wrap;html=1;" parent="1" vertex="1">
          <mxGeometry x="120" y="310" width="160" height="40" as="geometry" />
        </mxCell>
        <mxCell id="56nRF85Pk3SCUOcTt5Zv-9" value="" style="rounded=0;whiteSpace=wrap;html=1;" parent="1" vertex="1">
          <mxGeometry x="120" y="260" width="160" height="40" as="geometry" />
        </mxCell>
        <mxCell id="56nRF85Pk3SCUOcTt5Zv-10" value="" style="rounded=0;whiteSpace=wrap;html=1;" parent="1" vertex="1">
          <mxGeometry x="120" y="110" width="160" height="40" as="geometry" />
        </mxCell>
        <mxCell id="56nRF85Pk3SCUOcTt5Zv-11" value="" style="rounded=0;whiteSpace=wrap;html=1;" parent="1" vertex="1">
          <mxGeometry x="120" y="160" width="160" height="40" as="geometry" />
        </mxCell>
        <mxCell id="56nRF85Pk3SCUOcTt5Zv-12" value="" style="rounded=0;whiteSpace=wrap;html=1;" parent="1" vertex="1">
          <mxGeometry x="120" y="210" width="160" height="40" as="geometry" />
        </mxCell>
        <mxCell id="vwDUmSaHlhe9i_p7MX3b-1" value="" style="endArrow=classic;html=1;exitX=1;exitY=0.5;exitDx=0;exitDy=0;entryX=0.267;entryY=0.933;entryDx=0;entryDy=0;entryPerimeter=0;" edge="1" parent="1" source="56nRF85Pk3SCUOcTt5Zv-7" target="ZrmOziMJZViyUHCKc2ST-2">
          <mxGeometry width="50" height="50" relative="1" as="geometry">
            <mxPoint x="280" y="390" as="sourcePoint" />
            <mxPoint x="330" y="340" as="targetPoint" />
          </mxGeometry>
        </mxCell>
        <mxCell id="vwDUmSaHlhe9i_p7MX3b-2" value="" style="endArrow=classic;html=1;entryX=0.058;entryY=0.767;entryDx=0;entryDy=0;entryPerimeter=0;" edge="1" parent="1" target="ZrmOziMJZViyUHCKc2ST-2">
          <mxGeometry width="50" height="50" relative="1" as="geometry">
            <mxPoint x="280" y="330" as="sourcePoint" />
            <mxPoint x="364" y="280" as="targetPoint" />
          </mxGeometry>
        </mxCell>
        <mxCell id="vwDUmSaHlhe9i_p7MX3b-3" value="" style="endArrow=classic;html=1;exitX=1;exitY=0.5;exitDx=0;exitDy=0;entryX=0;entryY=0.5;entryDx=0;entryDy=0;" edge="1" parent="1" source="56nRF85Pk3SCUOcTt5Zv-9" target="ZrmOziMJZViyUHCKc2ST-2">
          <mxGeometry width="50" height="50" relative="1" as="geometry">
            <mxPoint x="290" y="290" as="sourcePoint" />
            <mxPoint x="330" y="230" as="targetPoint" />
          </mxGeometry>
        </mxCell>
        <mxCell id="vwDUmSaHlhe9i_p7MX3b-4" value="" style="endArrow=classic;html=1;entryX=0.008;entryY=0.325;entryDx=0;entryDy=0;entryPerimeter=0;" edge="1" parent="1" target="ZrmOziMJZViyUHCKc2ST-2">
          <mxGeometry width="50" height="50" relative="1" as="geometry">
            <mxPoint x="280" y="230" as="sourcePoint" />
            <mxPoint x="330" y="180" as="targetPoint" />
          </mxGeometry>
        </mxCell>
        <mxCell id="vwDUmSaHlhe9i_p7MX3b-5" value="" style="endArrow=classic;html=1;entryX=0.092;entryY=0.208;entryDx=0;entryDy=0;entryPerimeter=0;" edge="1" parent="1" target="ZrmOziMJZViyUHCKc2ST-2">
          <mxGeometry width="50" height="50" relative="1" as="geometry">
            <mxPoint x="280" y="180" as="sourcePoint" />
            <mxPoint x="330" y="130" as="targetPoint" />
          </mxGeometry>
        </mxCell>
        <mxCell id="vwDUmSaHlhe9i_p7MX3b-6" value="" style="endArrow=classic;html=1;entryX=0.242;entryY=0.067;entryDx=0;entryDy=0;entryPerimeter=0;" edge="1" parent="1" target="ZrmOziMJZViyUHCKc2ST-2">
          <mxGeometry width="50" height="50" relative="1" as="geometry">
            <mxPoint x="280" y="130" as="sourcePoint" />
            <mxPoint x="330" y="80" as="targetPoint" />
          </mxGeometry>
        </mxCell>
        <mxCell id="vwDUmSaHlhe9i_p7MX3b-7" value="" style="endArrow=classic;html=1;entryX=1;entryY=1;entryDx=0;entryDy=0;exitX=0;exitY=0.5;exitDx=0;exitDy=0;" edge="1" parent="1" source="56nRF85Pk3SCUOcTt5Zv-5" target="ZrmOziMJZViyUHCKc2ST-2">
          <mxGeometry width="50" height="50" relative="1" as="geometry">
            <mxPoint x="550" y="370" as="sourcePoint" />
            <mxPoint x="430" y="220" as="targetPoint" />
          </mxGeometry>
        </mxCell>
        <mxCell id="vwDUmSaHlhe9i_p7MX3b-8" value="" style="endArrow=classic;html=1;exitX=0;exitY=0.5;exitDx=0;exitDy=0;entryX=1;entryY=0.667;entryDx=0;entryDy=0;entryPerimeter=0;" edge="1" parent="1" source="56nRF85Pk3SCUOcTt5Zv-6" target="ZrmOziMJZViyUHCKc2ST-2">
          <mxGeometry width="50" height="50" relative="1" as="geometry">
            <mxPoint x="480" y="275" as="sourcePoint" />
            <mxPoint x="530" y="225" as="targetPoint" />
          </mxGeometry>
        </mxCell>
      </root>
    </mxGraphModel>
  </diagram>
</mxfile>
